<svg xmlns="http://www.w3.org/2000/svg" viewBox="0 0 800 800">
<defs>
<linearGradient id="wall" x1="0" y1="0" x2="0" y2="1"><stop offset="0" stop-color="#d6d2ca"/><stop offset="1" stop-color="#c7c3ba"/></linearGradient>
<linearGradient id="floor" x1="0" y1="0" x2="0" y2="1"><stop offset="0" stop-color="#b0aca3"/><stop offset="1" stop-color="#9d998f"/></linearGradient>
<radialGradient id="spot" cx="0.42" cy="0.3" r="0.8"><stop offset="0" stop-color="#f0ede6" stop-opacity="0.8"/><stop offset="1" stop-color="#f0ede6" stop-opacity="0"/></radialGradient>
<radialGradient id="vig" cx="0.5" cy="0.5" r="0.75"><stop offset="0.55" stop-color="#000000" stop-opacity="0"/><stop offset="1" stop-color="#1f1c17" stop-opacity="0.26"/></radialGradient>
<linearGradient id="steel" x1="0" y1="0" x2="1" y2="0"><stop offset="0" stop-color="#9b9a96"/><stop offset="0.12" stop-color="#c9c8c4"/><stop offset="0.3" stop-color="#a6a5a1"/><stop offset="0.5" stop-color="#d6d5d1"/><stop offset="0.72" stop-color="#a09f9b"/><stop offset="0.9" stop-color="#bcbbb7"/><stop offset="1" stop-color="#94938f"/></linearGradient>
<linearGradient id="steelIn" x1="0" y1="0" x2="1" y2="0"><stop offset="0" stop-color="#7d7c78"/><stop offset="0.5" stop-color="#96958f"/><stop offset="1" stop-color="#6f6e6a"/></linearGradient>
<linearGradient id="refl" x1="0" y1="0" x2="0" y2="1"><stop offset="0" stop-color="#e8e7e3" stop-opacity="0.28"/><stop offset="1" stop-color="#e8e7e3" stop-opacity="0"/></linearGradient>
<filter id="blurL"><feGaussianBlur stdDeviation="16"/></filter>
<filter id="blurS"><feGaussianBlur stdDeviation="4"/></filter>
<filter id="tex"><feTurbulence type="fractalNoise" baseFrequency="0.9" numOctaves="2" stitchTiles="stitch"/><feColorMatrix type="matrix" values="0 0 0 0 0.42  0 0 0 0 0.40 0 0 0 0 0.36 0 0 0 0.18 0"/></filter>
<filter id="grain"><feTurbulence type="fractalNoise" baseFrequency="0.95" numOctaves="2" stitchTiles="stitch"/><feColorMatrix type="matrix" values="0 0 0 0 0.08 0 0 0 0 0.08 0 0 0 0 0.07 0 0 0 0.06 0"/></filter>
</defs>
<rect width="800" height="800" fill="url(#wall)"/>
<rect width="800" height="800" fill="url(#spot)"/>
<rect y="512" width="800" height="288" fill="url(#floor)"/>
<rect y="512" width="800" height="288" filter="url(#tex)" opacity="0.55"/>
<path d="M90 660 Q 260 685 400 730 T 720 780" stroke="#837f75" stroke-width="1.3" fill="none" opacity="0.45"/>
<path d="M560 540 Q 600 570 585 620" stroke="#8a867c" stroke-width="1" fill="none" opacity="0.35"/>
<ellipse cx="405" cy="645" rx="250" ry="30" fill="#332f28" opacity="0.4" filter="url(#blurL)"/>
<path d="M596 640 L680 640 L640 380 L600 380 Z" fill="#3a362f" opacity="0.14" filter="url(#blurS)"/>
<g>
<path d="M222 640 L222 374 Q222 328 268 328 L532 328 Q578 328 578 374 L578 640 L534 640 L534 398 Q534 372 508 372 L292 372 Q266 372 266 398 L266 640 Z" fill="url(#steel)"/>
<path d="M266 398 Q266 372 292 372 L508 372 Q534 372 534 398 L534 402 L266 402 Z" fill="url(#steelIn)" opacity="0.85"/>
<path d="M222 374 Q222 328 268 328 L532 328 Q578 328 578 374 L574 374 Q574 332 532 332 L268 332 Q226 332 226 374 Z" fill="#efeeea" opacity="0.8"/>
<path d="M222 640 L222 374 Q222 328 268 328 L270 332 Q226 332 226 374 L226 640 Z" fill="#8a8985" opacity="0.6"/>
<rect x="572" y="380" width="6" height="260" fill="#77766f" opacity="0.5"/>
</g>
<path d="M222 642 L266 642 L266 760 L222 760 Z M534 642 L578 642 L578 760 L534 760 Z" fill="url(#refl)"/>
<rect width="800" height="800" fill="url(#vig)"/>
<rect width="800" height="800" filter="url(#grain)"/>
</svg>
